<svg width="200" height="70" viewBox="0 0 380 70" fill="none" xmlns="http://www.w3.org/2000/svg">
<path d="M55.3594 0.75V69H42.4219L13.4062 21.6562V69H0.515625V0.75H13.4062L42.5156 48.1406V0.75H55.3594ZM96.4688 11.1094L77.0156 69H63.375L88.875 0.75H97.5938L96.4688 11.1094ZM112.734 69L93.1875 11.1094L92.0156 0.75H100.781L126.422 69H112.734ZM111.844 43.6406V53.8125H75.2344V43.6406H111.844ZM188.297 0.75V69H175.359L146.344 21.6562V69H133.453V0.75H146.344L175.453 48.1406V0.75H188.297ZM229.406 11.1094L209.953 69H196.312L221.812 0.75H230.531L229.406 11.1094ZM245.672 69L226.125 11.1094L224.953 0.75H233.719L259.359 69H245.672ZM244.781 43.6406V53.8125H208.172V43.6406H244.781ZM286.781 69H272.062L272.156 58.875H286.781C290.75 58.875 294.078 58 296.766 56.25C299.453 54.4688 301.484 51.9219 302.859 48.6094C304.234 45.2656 304.922 41.2656 304.922 36.6094V33.0938C304.922 29.5 304.531 26.3281 303.75 23.5781C302.969 20.8281 301.812 18.5156 300.281 16.6406C298.781 14.7656 296.922 13.3438 294.703 12.375C292.484 11.4062 289.938 10.9219 287.062 10.9219H271.781V0.75H287.062C291.625 0.75 295.781 1.51562 299.531 3.04688C303.312 4.57813 306.578 6.78125 309.328 9.65625C312.109 12.5 314.234 15.9062 315.703 19.875C317.203 23.8438 317.953 28.2812 317.953 33.1875V36.6094C317.953 41.4844 317.203 45.9219 315.703 49.9219C314.234 53.8906 312.109 57.2969 309.328 60.1406C306.578 62.9844 303.297 65.1719 299.484 66.7031C295.672 68.2344 291.438 69 286.781 69ZM279.281 0.75V69H266.391V0.75H279.281ZM366.891 0.75H379.781V46.0781C379.781 51.2969 378.656 55.6875 376.406 59.25C374.156 62.7812 371.094 65.4531 367.219 67.2656C363.344 69.0469 358.938 69.9375 354 69.9375C349 69.9375 344.547 69.0469 340.641 67.2656C336.734 65.4531 333.672 62.7812 331.453 59.25C329.234 55.6875 328.125 51.2969 328.125 46.0781V0.75H341.016V46.0781C341.016 49.2656 341.547 51.875 342.609 53.9062C343.672 55.9062 345.172 57.3906 347.109 58.3594C349.047 59.3281 351.344 59.8125 354 59.8125C356.688 59.8125 358.984 59.3281 360.891 58.3594C362.828 57.3906 364.312 55.9062 365.344 53.9062C366.375 51.875 366.891 49.2656 366.891 46.0781V0.75Z" fill="#C5035C"/>
</svg>
